<svg width="370" height="73" viewBox="0 0 370 73" fill="none" xmlns="http://www.w3.org/2000/svg">
<path d="M176.34 60.475H172.86V70H171.413V60.475H167.925V59.2525H176.34V60.475ZM180.78 63.415C181.105 63.07 181.465 62.795 181.86 62.59C182.255 62.385 182.71 62.2825 183.225 62.2825C183.64 62.2825 184.005 62.3525 184.32 62.4925C184.64 62.6275 184.905 62.8225 185.115 63.0775C185.33 63.3275 185.493 63.63 185.603 63.985C185.713 64.34 185.768 64.7325 185.768 65.1625V70H184.425V65.1625C184.425 64.5875 184.293 64.1425 184.028 63.8275C183.768 63.5075 183.37 63.3475 182.835 63.3475C182.44 63.3475 182.07 63.4425 181.725 63.6325C181.385 63.8225 181.07 64.08 180.78 64.405V70H179.438V58.9525H180.78V63.415ZM191.02 63.925C191.26 63.405 191.555 63 191.905 62.71C192.255 62.415 192.682 62.2675 193.187 62.2675C193.347 62.2675 193.5 62.285 193.645 62.32C193.795 62.355 193.927 62.41 194.042 62.485L193.945 63.4825C193.915 63.6075 193.84 63.67 193.72 63.67C193.65 63.67 193.547 63.655 193.412 63.625C193.277 63.595 193.125 63.58 192.955 63.58C192.715 63.58 192.5 63.615 192.31 63.685C192.125 63.755 191.957 63.86 191.807 64C191.662 64.135 191.53 64.305 191.41 64.51C191.295 64.71 191.19 64.94 191.095 65.2V70H189.752V62.4025H190.517C190.662 62.4025 190.762 62.43 190.817 62.485C190.872 62.54 190.91 62.635 190.93 62.77L191.02 63.925ZM201.943 65.3725C201.943 65.0625 201.898 64.78 201.808 64.525C201.723 64.265 201.596 64.0425 201.426 63.8575C201.261 63.6675 201.058 63.5225 200.818 63.4225C200.578 63.3175 200.306 63.265 200.001 63.265C199.361 63.265 198.853 63.4525 198.478 63.8275C198.108 64.1975 197.878 64.7125 197.788 65.3725H201.943ZM203.023 68.935C202.858 69.135 202.661 69.31 202.431 69.46C202.201 69.605 201.953 69.725 201.688 69.82C201.428 69.915 201.158 69.985 200.878 70.03C200.598 70.08 200.321 70.105 200.046 70.105C199.521 70.105 199.036 70.0175 198.591 69.8425C198.151 69.6625 197.768 69.4025 197.443 69.0625C197.123 68.7175 196.873 68.2925 196.693 67.7875C196.513 67.2825 196.423 66.7025 196.423 66.0475C196.423 65.5175 196.503 65.0225 196.663 64.5625C196.828 64.1025 197.063 63.705 197.368 63.37C197.673 63.03 198.046 62.765 198.486 62.575C198.926 62.38 199.421 62.2825 199.971 62.2825C200.426 62.2825 200.846 62.36 201.231 62.515C201.621 62.665 201.956 62.885 202.236 63.175C202.521 63.46 202.743 63.815 202.903 64.24C203.063 64.66 203.143 65.14 203.143 65.68C203.143 65.89 203.121 66.03 203.076 66.1C203.031 66.17 202.946 66.205 202.821 66.205H197.743C197.758 66.685 197.823 67.1025 197.938 67.4575C198.058 67.8125 198.223 68.11 198.433 68.35C198.643 68.585 198.893 68.7625 199.183 68.8825C199.473 68.9975 199.798 69.055 200.158 69.055C200.493 69.055 200.781 69.0175 201.021 68.9425C201.266 68.8625 201.476 68.7775 201.651 68.6875C201.826 68.5975 201.971 68.515 202.086 68.44C202.206 68.36 202.308 68.32 202.393 68.32C202.503 68.32 202.588 68.3625 202.648 68.4475L203.023 68.935ZM210.851 66.58C210.236 66.6 209.711 66.65 209.276 66.73C208.846 66.805 208.493 66.905 208.218 67.03C207.948 67.155 207.751 67.3025 207.626 67.4725C207.506 67.6425 207.446 67.8325 207.446 68.0425C207.446 68.2425 207.478 68.415 207.543 68.56C207.608 68.705 207.696 68.825 207.806 68.92C207.921 69.01 208.053 69.0775 208.203 69.1225C208.358 69.1625 208.523 69.1825 208.698 69.1825C208.933 69.1825 209.148 69.16 209.343 69.115C209.538 69.065 209.721 68.995 209.891 68.905C210.066 68.815 210.231 68.7075 210.386 68.5825C210.546 68.4575 210.701 68.315 210.851 68.155V66.58ZM206.538 63.475C206.958 63.07 207.411 62.7675 207.896 62.5675C208.381 62.3675 208.918 62.2675 209.508 62.2675C209.933 62.2675 210.311 62.3375 210.641 62.4775C210.971 62.6175 211.248 62.8125 211.473 63.0625C211.698 63.3125 211.868 63.615 211.983 63.97C212.098 64.325 212.156 64.715 212.156 65.14V70H211.563C211.433 70 211.333 69.98 211.263 69.94C211.193 69.895 211.138 69.81 211.098 69.685L210.948 68.965C210.748 69.15 210.553 69.315 210.363 69.46C210.173 69.6 209.973 69.72 209.763 69.82C209.553 69.915 209.328 69.9875 209.088 70.0375C208.853 70.0925 208.591 70.12 208.301 70.12C208.006 70.12 207.728 70.08 207.468 70C207.208 69.915 206.981 69.79 206.786 69.625C206.596 69.46 206.443 69.2525 206.328 69.0025C206.218 68.7475 206.163 68.4475 206.163 68.1025C206.163 67.8025 206.246 67.515 206.411 67.24C206.576 66.96 206.843 66.7125 207.213 66.4975C207.583 66.2825 208.066 66.1075 208.661 65.9725C209.256 65.8325 209.986 65.7525 210.851 65.7325V65.14C210.851 64.55 210.723 64.105 210.468 63.805C210.213 63.5 209.841 63.3475 209.351 63.3475C209.021 63.3475 208.743 63.39 208.518 63.475C208.298 63.555 208.106 63.6475 207.941 63.7525C207.781 63.8525 207.641 63.945 207.521 64.03C207.406 64.11 207.291 64.15 207.176 64.15C207.086 64.15 207.008 64.1275 206.943 64.0825C206.878 64.0325 206.823 63.9725 206.778 63.9025L206.538 63.475ZM218.369 70.12C217.769 70.12 217.307 69.9525 216.982 69.6175C216.662 69.2825 216.502 68.8 216.502 68.17V63.52H215.587C215.507 63.52 215.439 63.4975 215.384 63.4525C215.329 63.4025 215.302 63.3275 215.302 63.2275V62.695L216.547 62.5375L216.854 60.19C216.869 60.115 216.902 60.055 216.952 60.01C217.007 59.96 217.077 59.935 217.162 59.935H217.837V62.5525H220.034V63.52H217.837V68.08C217.837 68.4 217.914 68.6375 218.069 68.7925C218.224 68.9475 218.424 69.025 218.669 69.025C218.809 69.025 218.929 69.0075 219.029 68.9725C219.134 68.9325 219.224 68.89 219.299 68.845C219.374 68.8 219.437 68.76 219.487 68.725C219.542 68.685 219.589 68.665 219.629 68.665C219.699 68.665 219.762 68.7075 219.817 68.7925L220.207 69.43C219.977 69.645 219.699 69.815 219.374 69.94C219.049 70.06 218.714 70.12 218.369 70.12ZM230.921 70H229.466V59.2525H230.921V70ZM236.448 63.505C236.613 63.32 236.788 63.1525 236.973 63.0025C237.158 62.8525 237.353 62.725 237.558 62.62C237.768 62.51 237.988 62.4275 238.218 62.3725C238.453 62.3125 238.705 62.2825 238.975 62.2825C239.39 62.2825 239.755 62.3525 240.07 62.4925C240.39 62.6275 240.655 62.8225 240.865 63.0775C241.08 63.3275 241.243 63.63 241.353 63.985C241.463 64.34 241.518 64.7325 241.518 65.1625V70H240.175V65.1625C240.175 64.5875 240.043 64.1425 239.778 63.8275C239.518 63.5075 239.12 63.3475 238.585 63.3475C238.19 63.3475 237.82 63.4425 237.475 63.6325C237.135 63.8225 236.82 64.08 236.53 64.405V70H235.188V62.4025H235.99C236.18 62.4025 236.298 62.495 236.343 62.68L236.448 63.505ZM247.732 70.12C247.132 70.12 246.669 69.9525 246.344 69.6175C246.024 69.2825 245.864 68.8 245.864 68.17V63.52H244.949C244.869 63.52 244.802 63.4975 244.747 63.4525C244.692 63.4025 244.664 63.3275 244.664 63.2275V62.695L245.909 62.5375L246.217 60.19C246.232 60.115 246.264 60.055 246.314 60.01C246.369 59.96 246.439 59.935 246.524 59.935H247.199V62.5525H249.397V63.52H247.199V68.08C247.199 68.4 247.277 68.6375 247.432 68.7925C247.587 68.9475 247.787 69.025 248.032 69.025C248.172 69.025 248.292 69.0075 248.392 68.9725C248.497 68.9325 248.587 68.89 248.662 68.845C248.737 68.8 248.799 68.76 248.849 68.725C248.904 68.685 248.952 68.665 248.992 68.665C249.062 68.665 249.124 68.7075 249.179 68.7925L249.569 69.43C249.339 69.645 249.062 69.815 248.737 69.94C248.412 70.06 248.077 70.12 247.732 70.12ZM257.766 65.3725C257.766 65.0625 257.721 64.78 257.631 64.525C257.546 64.265 257.419 64.0425 257.249 63.8575C257.084 63.6675 256.881 63.5225 256.641 63.4225C256.401 63.3175 256.129 63.265 255.824 63.265C255.184 63.265 254.676 63.4525 254.301 63.8275C253.931 64.1975 253.701 64.7125 253.611 65.3725H257.766ZM258.846 68.935C258.681 69.135 258.484 69.31 258.254 69.46C258.024 69.605 257.776 69.725 257.511 69.82C257.251 69.915 256.981 69.985 256.701 70.03C256.421 70.08 256.144 70.105 255.869 70.105C255.344 70.105 254.859 70.0175 254.414 69.8425C253.974 69.6625 253.591 69.4025 253.266 69.0625C252.946 68.7175 252.696 68.2925 252.516 67.7875C252.336 67.2825 252.246 66.7025 252.246 66.0475C252.246 65.5175 252.326 65.0225 252.486 64.5625C252.651 64.1025 252.886 63.705 253.191 63.37C253.496 63.03 253.869 62.765 254.309 62.575C254.749 62.38 255.244 62.2825 255.794 62.2825C256.249 62.2825 256.669 62.36 257.054 62.515C257.444 62.665 257.779 62.885 258.059 63.175C258.344 63.46 258.566 63.815 258.726 64.24C258.886 64.66 258.966 65.14 258.966 65.68C258.966 65.89 258.944 66.03 258.899 66.1C258.854 66.17 258.769 66.205 258.644 66.205H253.566C253.581 66.685 253.646 67.1025 253.761 67.4575C253.881 67.8125 254.046 68.11 254.256 68.35C254.466 68.585 254.716 68.7625 255.006 68.8825C255.296 68.9975 255.621 69.055 255.981 69.055C256.316 69.055 256.604 69.0175 256.844 68.9425C257.089 68.8625 257.299 68.7775 257.474 68.6875C257.649 68.5975 257.794 68.515 257.909 68.44C258.029 68.36 258.131 68.32 258.216 68.32C258.326 68.32 258.411 68.3625 258.471 68.4475L258.846 68.935ZM263.936 58.9525V70H262.601V58.9525H263.936ZM269.431 58.9525V70H268.096V58.9525H269.431ZM274.956 62.4025V70H273.621V62.4025H274.956ZM275.241 60.0175C275.241 60.1475 275.213 60.27 275.158 60.385C275.108 60.495 275.038 60.595 274.948 60.685C274.863 60.77 274.761 60.8375 274.641 60.8875C274.526 60.9375 274.403 60.9625 274.273 60.9625C274.143 60.9625 274.021 60.9375 273.906 60.8875C273.796 60.8375 273.698 60.77 273.613 60.685C273.528 60.595 273.461 60.495 273.411 60.385C273.361 60.27 273.336 60.1475 273.336 60.0175C273.336 59.8875 273.361 59.765 273.411 59.65C273.461 59.53 273.528 59.4275 273.613 59.3425C273.698 59.2525 273.796 59.1825 273.906 59.1325C274.021 59.0825 274.143 59.0575 274.273 59.0575C274.403 59.0575 274.526 59.0825 274.641 59.1325C274.761 59.1825 274.863 59.2525 274.948 59.3425C275.038 59.4275 275.108 59.53 275.158 59.65C275.213 59.765 275.241 59.8875 275.241 60.0175ZM281.747 66.2875C282.017 66.2875 282.255 66.25 282.46 66.175C282.665 66.1 282.837 65.995 282.977 65.86C283.117 65.725 283.222 65.565 283.292 65.38C283.362 65.19 283.397 64.9825 283.397 64.7575C283.397 64.2925 283.255 63.9225 282.97 63.6475C282.69 63.3725 282.282 63.235 281.747 63.235C281.207 63.235 280.795 63.3725 280.51 63.6475C280.23 63.9225 280.09 64.2925 280.09 64.7575C280.09 64.9825 280.125 65.19 280.195 65.38C280.27 65.565 280.377 65.725 280.517 65.86C280.657 65.995 280.83 66.1 281.035 66.175C281.24 66.25 281.477 66.2875 281.747 66.2875ZM284.155 70.4125C284.155 70.2275 284.102 70.0775 283.997 69.9625C283.892 69.8475 283.75 69.7575 283.57 69.6925C283.395 69.6275 283.19 69.5825 282.955 69.5575C282.72 69.5275 282.47 69.505 282.205 69.49C281.945 69.475 281.68 69.46 281.41 69.445C281.14 69.43 280.88 69.405 280.63 69.37C280.35 69.5 280.12 69.665 279.94 69.865C279.765 70.06 279.677 70.29 279.677 70.555C279.677 70.725 279.72 70.8825 279.805 71.0275C279.895 71.1775 280.03 71.305 280.21 71.41C280.39 71.52 280.615 71.605 280.885 71.665C281.16 71.73 281.482 71.7625 281.852 71.7625C282.212 71.7625 282.535 71.73 282.82 71.665C283.105 71.6 283.345 71.5075 283.54 71.3875C283.74 71.2675 283.892 71.125 283.997 70.96C284.102 70.795 284.155 70.6125 284.155 70.4125ZM285.512 62.7025V63.1975C285.512 63.3625 285.407 63.4675 285.197 63.5125L284.335 63.625C284.505 63.955 284.59 64.32 284.59 64.72C284.59 65.09 284.517 65.4275 284.372 65.7325C284.232 66.0325 284.037 66.29 283.787 66.505C283.537 66.72 283.237 66.885 282.887 67C282.537 67.115 282.157 67.1725 281.747 67.1725C281.392 67.1725 281.057 67.13 280.742 67.045C280.582 67.145 280.46 67.2525 280.375 67.3675C280.29 67.4775 280.247 67.59 280.247 67.705C280.247 67.885 280.32 68.0225 280.465 68.1175C280.615 68.2075 280.81 68.2725 281.05 68.3125C281.29 68.3525 281.562 68.3775 281.867 68.3875C282.177 68.3975 282.492 68.415 282.812 68.44C283.137 68.46 283.452 68.4975 283.757 68.5525C284.067 68.6075 284.342 68.6975 284.582 68.8225C284.822 68.9475 285.015 69.12 285.16 69.34C285.31 69.56 285.385 69.845 285.385 70.195C285.385 70.52 285.302 70.835 285.137 71.14C284.977 71.445 284.745 71.715 284.44 71.95C284.135 72.19 283.76 72.38 283.315 72.52C282.875 72.665 282.377 72.7375 281.822 72.7375C281.267 72.7375 280.782 72.6825 280.367 72.5725C279.952 72.4625 279.607 72.315 279.332 72.13C279.057 71.945 278.85 71.73 278.71 71.485C278.575 71.245 278.507 70.9925 278.507 70.7275C278.507 70.3525 278.625 70.035 278.86 69.775C279.095 69.515 279.417 69.3075 279.827 69.1525C279.602 69.0525 279.422 68.92 279.287 68.755C279.157 68.585 279.092 68.3575 279.092 68.0725C279.092 67.9625 279.112 67.85 279.152 67.735C279.192 67.615 279.252 67.4975 279.332 67.3825C279.417 67.2625 279.52 67.15 279.64 67.045C279.76 66.94 279.9 66.8475 280.06 66.7675C279.685 66.5575 279.392 66.28 279.182 65.935C278.972 65.585 278.867 65.18 278.867 64.72C278.867 64.35 278.937 64.015 279.077 63.715C279.222 63.41 279.422 63.1525 279.677 62.9425C279.932 62.7275 280.235 62.5625 280.585 62.4475C280.94 62.3325 281.327 62.275 281.747 62.275C282.077 62.275 282.385 62.3125 282.67 62.3875C282.955 62.4575 283.215 62.5625 283.45 62.7025H285.512ZM293.81 65.3725C293.81 65.0625 293.765 64.78 293.675 64.525C293.59 64.265 293.463 64.0425 293.293 63.8575C293.128 63.6675 292.925 63.5225 292.685 63.4225C292.445 63.3175 292.173 63.265 291.868 63.265C291.228 63.265 290.72 63.4525 290.345 63.8275C289.975 64.1975 289.745 64.7125 289.655 65.3725H293.81ZM294.89 68.935C294.725 69.135 294.528 69.31 294.298 69.46C294.068 69.605 293.82 69.725 293.555 69.82C293.295 69.915 293.025 69.985 292.745 70.03C292.465 70.08 292.188 70.105 291.913 70.105C291.388 70.105 290.903 70.0175 290.458 69.8425C290.018 69.6625 289.635 69.4025 289.31 69.0625C288.99 68.7175 288.74 68.2925 288.56 67.7875C288.38 67.2825 288.29 66.7025 288.29 66.0475C288.29 65.5175 288.37 65.0225 288.53 64.5625C288.695 64.1025 288.93 63.705 289.235 63.37C289.54 63.03 289.913 62.765 290.353 62.575C290.793 62.38 291.288 62.2825 291.838 62.2825C292.293 62.2825 292.713 62.36 293.098 62.515C293.488 62.665 293.823 62.885 294.103 63.175C294.388 63.46 294.61 63.815 294.77 64.24C294.93 64.66 295.01 65.14 295.01 65.68C295.01 65.89 294.988 66.03 294.943 66.1C294.898 66.17 294.813 66.205 294.688 66.205H289.61C289.625 66.685 289.69 67.1025 289.805 67.4575C289.925 67.8125 290.09 68.11 290.3 68.35C290.51 68.585 290.76 68.7625 291.05 68.8825C291.34 68.9975 291.665 69.055 292.025 69.055C292.36 69.055 292.648 69.0175 292.888 68.9425C293.133 68.8625 293.343 68.7775 293.518 68.6875C293.693 68.5975 293.838 68.515 293.953 68.44C294.073 68.36 294.175 68.32 294.26 68.32C294.37 68.32 294.455 68.3625 294.515 68.4475L294.89 68.935ZM299.86 63.505C300.025 63.32 300.2 63.1525 300.385 63.0025C300.57 62.8525 300.765 62.725 300.97 62.62C301.18 62.51 301.4 62.4275 301.63 62.3725C301.865 62.3125 302.118 62.2825 302.388 62.2825C302.803 62.2825 303.168 62.3525 303.483 62.4925C303.803 62.6275 304.068 62.8225 304.278 63.0775C304.493 63.3275 304.655 63.63 304.765 63.985C304.875 64.34 304.93 64.7325 304.93 65.1625V70H303.588V65.1625C303.588 64.5875 303.455 64.1425 303.19 63.8275C302.93 63.5075 302.533 63.3475 301.998 63.3475C301.603 63.3475 301.233 63.4425 300.888 63.6325C300.548 63.8225 300.233 64.08 299.943 64.405V70H298.6V62.4025H299.403C299.593 62.4025 299.71 62.495 299.755 62.68L299.86 63.505ZM314.202 63.7525C314.162 63.8075 314.122 63.85 314.082 63.88C314.042 63.91 313.987 63.925 313.917 63.925C313.842 63.925 313.759 63.895 313.669 63.835C313.579 63.77 313.467 63.7 313.332 63.625C313.202 63.55 313.039 63.4825 312.844 63.4225C312.654 63.3575 312.419 63.325 312.139 63.325C311.764 63.325 311.434 63.3925 311.149 63.5275C310.864 63.6575 310.624 63.8475 310.429 64.0975C310.239 64.3475 310.094 64.65 309.994 65.005C309.899 65.36 309.852 65.7575 309.852 66.1975C309.852 66.6575 309.904 67.0675 310.009 67.4275C310.114 67.7825 310.262 68.0825 310.452 68.3275C310.647 68.5675 310.879 68.7525 311.149 68.8825C311.424 69.0075 311.732 69.07 312.072 69.07C312.397 69.07 312.664 69.0325 312.874 68.9575C313.084 68.8775 313.257 68.79 313.392 68.695C313.532 68.6 313.647 68.515 313.737 68.44C313.832 68.36 313.924 68.32 314.014 68.32C314.124 68.32 314.209 68.3625 314.269 68.4475L314.644 68.935C314.479 69.14 314.292 69.315 314.082 69.46C313.872 69.605 313.644 69.7275 313.399 69.8275C313.159 69.9225 312.907 69.9925 312.642 70.0375C312.377 70.0825 312.107 70.105 311.832 70.105C311.357 70.105 310.914 70.0175 310.504 69.8425C310.099 69.6675 309.747 69.415 309.447 69.085C309.147 68.75 308.912 68.34 308.742 67.855C308.572 67.37 308.487 66.8175 308.487 66.1975C308.487 65.6325 308.564 65.11 308.719 64.63C308.879 64.15 309.109 63.7375 309.409 63.3925C309.714 63.0425 310.087 62.77 310.527 62.575C310.972 62.38 311.482 62.2825 312.057 62.2825C312.592 62.2825 313.062 62.37 313.467 62.545C313.877 62.715 314.239 62.9575 314.554 63.2725L314.202 63.7525ZM322.981 65.3725C322.981 65.0625 322.936 64.78 322.846 64.525C322.761 64.265 322.633 64.0425 322.463 63.8575C322.298 63.6675 322.096 63.5225 321.856 63.4225C321.616 63.3175 321.343 63.265 321.038 63.265C320.398 63.265 319.891 63.4525 319.516 63.8275C319.146 64.1975 318.916 64.7125 318.826 65.3725H322.981ZM324.061 68.935C323.896 69.135 323.698 69.31 323.468 69.46C323.238 69.605 322.991 69.725 322.726 69.82C322.466 69.915 322.196 69.985 321.916 70.03C321.636 70.08 321.358 70.105 321.083 70.105C320.558 70.105 320.073 70.0175 319.628 69.8425C319.188 69.6625 318.806 69.4025 318.481 69.0625C318.161 68.7175 317.911 68.2925 317.731 67.7875C317.551 67.2825 317.461 66.7025 317.461 66.0475C317.461 65.5175 317.541 65.0225 317.701 64.5625C317.866 64.1025 318.101 63.705 318.406 63.37C318.711 63.03 319.083 62.765 319.523 62.575C319.963 62.38 320.458 62.2825 321.008 62.2825C321.463 62.2825 321.883 62.36 322.268 62.515C322.658 62.665 322.993 62.885 323.273 63.175C323.558 63.46 323.781 63.815 323.941 64.24C324.101 64.66 324.181 65.14 324.181 65.68C324.181 65.89 324.158 66.03 324.113 66.1C324.068 66.17 323.983 66.205 323.858 66.205H318.781C318.796 66.685 318.861 67.1025 318.976 67.4575C319.096 67.8125 319.261 68.11 319.471 68.35C319.681 68.585 319.931 68.7625 320.221 68.8825C320.511 68.9975 320.836 69.055 321.196 69.055C321.531 69.055 321.818 69.0175 322.058 68.9425C322.303 68.8625 322.513 68.7775 322.688 68.6875C322.863 68.5975 323.008 68.515 323.123 68.44C323.243 68.36 323.346 68.32 323.431 68.32C323.541 68.32 323.626 68.3625 323.686 68.4475L324.061 68.935ZM335.328 60.4375V64.195H339.746V65.38H335.328V70H333.873V59.2525H340.496V60.4375H335.328ZM348.416 65.3725C348.416 65.0625 348.371 64.78 348.281 64.525C348.196 64.265 348.068 64.0425 347.898 63.8575C347.733 63.6675 347.531 63.5225 347.291 63.4225C347.051 63.3175 346.778 63.265 346.473 63.265C345.833 63.265 345.326 63.4525 344.951 63.8275C344.581 64.1975 344.351 64.7125 344.261 65.3725H348.416ZM349.496 68.935C349.331 69.135 349.133 69.31 348.903 69.46C348.673 69.605 348.426 69.725 348.161 69.82C347.901 69.915 347.631 69.985 347.351 70.03C347.071 70.08 346.793 70.105 346.518 70.105C345.993 70.105 345.508 70.0175 345.063 69.8425C344.623 69.6625 344.241 69.4025 343.916 69.0625C343.596 68.7175 343.346 68.2925 343.166 67.7875C342.986 67.2825 342.896 66.7025 342.896 66.0475C342.896 65.5175 342.976 65.0225 343.136 64.5625C343.301 64.1025 343.536 63.705 343.841 63.37C344.146 63.03 344.518 62.765 344.958 62.575C345.398 62.38 345.893 62.2825 346.443 62.2825C346.898 62.2825 347.318 62.36 347.703 62.515C348.093 62.665 348.428 62.885 348.708 63.175C348.993 63.46 349.216 63.815 349.376 64.24C349.536 64.66 349.616 65.14 349.616 65.68C349.616 65.89 349.593 66.03 349.548 66.1C349.503 66.17 349.418 66.205 349.293 66.205H344.216C344.231 66.685 344.296 67.1025 344.411 67.4575C344.531 67.8125 344.696 68.11 344.906 68.35C345.116 68.585 345.366 68.7625 345.656 68.8825C345.946 68.9975 346.271 69.055 346.631 69.055C346.966 69.055 347.253 69.0175 347.493 68.9425C347.738 68.8625 347.948 68.7775 348.123 68.6875C348.298 68.5975 348.443 68.515 348.558 68.44C348.678 68.36 348.781 68.32 348.866 68.32C348.976 68.32 349.061 68.3625 349.121 68.4475L349.496 68.935ZM358.29 65.3725C358.29 65.0625 358.245 64.78 358.155 64.525C358.07 64.265 357.943 64.0425 357.773 63.8575C357.608 63.6675 357.405 63.5225 357.165 63.4225C356.925 63.3175 356.653 63.265 356.348 63.265C355.708 63.265 355.2 63.4525 354.825 63.8275C354.455 64.1975 354.225 64.7125 354.135 65.3725H358.29ZM359.37 68.935C359.205 69.135 359.008 69.31 358.778 69.46C358.548 69.605 358.3 69.725 358.035 69.82C357.775 69.915 357.505 69.985 357.225 70.03C356.945 70.08 356.668 70.105 356.393 70.105C355.868 70.105 355.383 70.0175 354.938 69.8425C354.498 69.6625 354.115 69.4025 353.79 69.0625C353.47 68.7175 353.22 68.2925 353.04 67.7875C352.86 67.2825 352.77 66.7025 352.77 66.0475C352.77 65.5175 352.85 65.0225 353.01 64.5625C353.175 64.1025 353.41 63.705 353.715 63.37C354.02 63.03 354.393 62.765 354.833 62.575C355.273 62.38 355.768 62.2825 356.318 62.2825C356.773 62.2825 357.193 62.36 357.578 62.515C357.968 62.665 358.303 62.885 358.583 63.175C358.868 63.46 359.09 63.815 359.25 64.24C359.41 64.66 359.49 65.14 359.49 65.68C359.49 65.89 359.468 66.03 359.423 66.1C359.378 66.17 359.293 66.205 359.168 66.205H354.09C354.105 66.685 354.17 67.1025 354.285 67.4575C354.405 67.8125 354.57 68.11 354.78 68.35C354.99 68.585 355.24 68.7625 355.53 68.8825C355.82 68.9975 356.145 69.055 356.505 69.055C356.84 69.055 357.128 69.0175 357.368 68.9425C357.613 68.8625 357.823 68.7775 357.998 68.6875C358.173 68.5975 358.318 68.515 358.433 68.44C358.553 68.36 358.655 68.32 358.74 68.32C358.85 68.32 358.935 68.3625 358.995 68.4475L359.37 68.935ZM368.03 64.21C367.78 63.875 367.51 63.6425 367.22 63.5125C366.93 63.3775 366.605 63.31 366.245 63.31C365.54 63.31 364.998 63.5625 364.618 64.0675C364.238 64.5725 364.048 65.2925 364.048 66.2275C364.048 66.7225 364.09 67.1475 364.175 67.5025C364.26 67.8525 364.385 68.1425 364.55 68.3725C364.715 68.5975 364.918 68.7625 365.158 68.8675C365.398 68.9725 365.67 69.025 365.975 69.025C366.415 69.025 366.798 68.925 367.123 68.725C367.453 68.525 367.755 68.2425 368.03 67.8775V64.21ZM369.365 58.9525V70H368.57C368.38 70 368.26 69.9075 368.21 69.7225L368.09 68.8C367.765 69.19 367.395 69.505 366.98 69.745C366.565 69.985 366.085 70.105 365.54 70.105C365.105 70.105 364.71 70.0225 364.355 69.8575C364 69.6875 363.698 69.44 363.448 69.115C363.198 68.79 363.005 68.385 362.87 67.9C362.735 67.415 362.668 66.8575 362.668 66.2275C362.668 65.6675 362.743 65.1475 362.893 64.6675C363.043 64.1825 363.258 63.7625 363.538 63.4075C363.818 63.0525 364.16 62.775 364.565 62.575C364.975 62.37 365.435 62.2675 365.945 62.2675C366.41 62.2675 366.808 62.3475 367.138 62.5075C367.473 62.6625 367.77 62.88 368.03 63.16V58.9525H369.365Z" fill="#202020"/>
<path d="M69.08 59.2525V70H67.625V65.11H61.8275V70H60.3725V59.2525H61.8275V64.045H67.625V59.2525H69.08ZM76.4307 62.2825C76.9857 62.2825 77.4857 62.375 77.9307 62.56C78.3757 62.745 78.7557 63.0075 79.0707 63.3475C79.3857 63.6875 79.6257 64.1 79.7907 64.585C79.9607 65.065 80.0457 65.6025 80.0457 66.1975C80.0457 66.7975 79.9607 67.3375 79.7907 67.8175C79.6257 68.2975 79.3857 68.7075 79.0707 69.0475C78.7557 69.3875 78.3757 69.65 77.9307 69.835C77.4857 70.015 76.9857 70.105 76.4307 70.105C75.8707 70.105 75.3657 70.015 74.9157 69.835C74.4707 69.65 74.0907 69.3875 73.7757 69.0475C73.4607 68.7075 73.2182 68.2975 73.0482 67.8175C72.8832 67.3375 72.8007 66.7975 72.8007 66.1975C72.8007 65.6025 72.8832 65.065 73.0482 64.585C73.2182 64.1 73.4607 63.6875 73.7757 63.3475C74.0907 63.0075 74.4707 62.745 74.9157 62.56C75.3657 62.375 75.8707 62.2825 76.4307 62.2825ZM76.4307 69.0625C77.1807 69.0625 77.7407 68.8125 78.1107 68.3125C78.4807 67.8075 78.6657 67.105 78.6657 66.205C78.6657 65.3 78.4807 64.595 78.1107 64.09C77.7407 63.585 77.1807 63.3325 76.4307 63.3325C76.0507 63.3325 75.7182 63.3975 75.4332 63.5275C75.1532 63.6575 74.9182 63.845 74.7282 64.09C74.5432 64.335 74.4032 64.6375 74.3082 64.9975C74.2182 65.3525 74.1732 65.755 74.1732 66.205C74.1732 67.105 74.3582 67.8075 74.7282 68.3125C75.1032 68.8125 75.6707 69.0625 76.4307 69.0625ZM84.9489 63.505C85.1139 63.32 85.2889 63.1525 85.4739 63.0025C85.6589 62.8525 85.8539 62.725 86.0589 62.62C86.2689 62.51 86.4889 62.4275 86.7189 62.3725C86.9539 62.3125 87.2064 62.2825 87.4764 62.2825C87.8914 62.2825 88.2564 62.3525 88.5714 62.4925C88.8914 62.6275 89.1564 62.8225 89.3664 63.0775C89.5814 63.3275 89.7439 63.63 89.8539 63.985C89.9639 64.34 90.0189 64.7325 90.0189 65.1625V70H88.6764V65.1625C88.6764 64.5875 88.5439 64.1425 88.2789 63.8275C88.0189 63.5075 87.6214 63.3475 87.0864 63.3475C86.6914 63.3475 86.3214 63.4425 85.9764 63.6325C85.6364 63.8225 85.3214 64.08 85.0314 64.405V70H83.6889V62.4025H84.4914C84.6814 62.4025 84.7989 62.495 84.8439 62.68L84.9489 63.505ZM99.0882 65.3725C99.0882 65.0625 99.0432 64.78 98.9532 64.525C98.8682 64.265 98.7407 64.0425 98.5707 63.8575C98.4057 63.6675 98.2032 63.5225 97.9632 63.4225C97.7232 63.3175 97.4507 63.265 97.1457 63.265C96.5057 63.265 95.9982 63.4525 95.6232 63.8275C95.2532 64.1975 95.0232 64.7125 94.9332 65.3725H99.0882ZM100.168 68.935C100.003 69.135 99.8057 69.31 99.5757 69.46C99.3457 69.605 99.0982 69.725 98.8332 69.82C98.5732 69.915 98.3032 69.985 98.0232 70.03C97.7432 70.08 97.4657 70.105 97.1907 70.105C96.6657 70.105 96.1807 70.0175 95.7357 69.8425C95.2957 69.6625 94.9132 69.4025 94.5882 69.0625C94.2682 68.7175 94.0182 68.2925 93.8382 67.7875C93.6582 67.2825 93.5682 66.7025 93.5682 66.0475C93.5682 65.5175 93.6482 65.0225 93.8082 64.5625C93.9732 64.1025 94.2082 63.705 94.5132 63.37C94.8182 63.03 95.1907 62.765 95.6307 62.575C96.0707 62.38 96.5657 62.2825 97.1157 62.2825C97.5707 62.2825 97.9907 62.36 98.3757 62.515C98.7657 62.665 99.1007 62.885 99.3807 63.175C99.6657 63.46 99.8882 63.815 100.048 64.24C100.208 64.66 100.288 65.14 100.288 65.68C100.288 65.89 100.266 66.03 100.221 66.1C100.176 66.17 100.091 66.205 99.9657 66.205H94.8882C94.9032 66.685 94.9682 67.1025 95.0832 67.4575C95.2032 67.8125 95.3682 68.11 95.5782 68.35C95.7882 68.585 96.0382 68.7625 96.3282 68.8825C96.6182 68.9975 96.9432 69.055 97.3032 69.055C97.6382 69.055 97.9257 69.0175 98.1657 68.9425C98.4107 68.8625 98.6207 68.7775 98.7957 68.6875C98.9707 68.5975 99.1157 68.515 99.2307 68.44C99.3507 68.36 99.4532 68.32 99.5382 68.32C99.6482 68.32 99.7332 68.3625 99.7932 68.4475L100.168 68.935ZM110.243 62.4025L106.005 72.2425C105.96 72.3425 105.903 72.4225 105.833 72.4825C105.768 72.5425 105.665 72.5725 105.525 72.5725H104.535L105.923 69.5575L102.788 62.4025H103.943C104.058 62.4025 104.148 62.4325 104.213 62.4925C104.283 62.5475 104.33 62.61 104.355 62.68L106.388 67.465C106.468 67.675 106.535 67.895 106.59 68.125C106.66 67.89 106.735 67.6675 106.815 67.4575L108.788 62.68C108.818 62.6 108.868 62.535 108.938 62.485C109.013 62.43 109.095 62.4025 109.185 62.4025H110.243ZM114.714 68.17C114.959 68.5 115.227 68.7325 115.517 68.8675C115.807 69.0025 116.132 69.07 116.492 69.07C117.202 69.07 117.747 68.8175 118.127 68.3125C118.507 67.8075 118.697 67.0875 118.697 66.1525C118.697 65.6575 118.652 65.2325 118.562 64.8775C118.477 64.5225 118.352 64.2325 118.187 64.0075C118.022 63.7775 117.819 63.61 117.579 63.505C117.339 63.4 117.067 63.3475 116.762 63.3475C116.327 63.3475 115.944 63.4475 115.614 63.6475C115.289 63.8475 114.989 64.13 114.714 64.495V68.17ZM114.647 63.58C114.967 63.185 115.337 62.8675 115.757 62.6275C116.177 62.3875 116.657 62.2675 117.197 62.2675C117.637 62.2675 118.034 62.3525 118.389 62.5225C118.744 62.6875 119.047 62.935 119.297 63.265C119.547 63.59 119.739 63.995 119.874 64.48C120.009 64.965 120.077 65.5225 120.077 66.1525C120.077 66.7125 120.002 67.235 119.852 67.72C119.702 68.2 119.484 68.6175 119.199 68.9725C118.919 69.3225 118.574 69.6 118.164 69.805C117.759 70.005 117.302 70.105 116.792 70.105C116.327 70.105 115.927 70.0275 115.592 69.8725C115.262 69.7125 114.969 69.4925 114.714 69.2125V72.5725H113.372V62.4025H114.174C114.364 62.4025 114.482 62.495 114.527 62.68L114.647 63.58ZM126.933 62.2825C127.488 62.2825 127.988 62.375 128.433 62.56C128.878 62.745 129.258 63.0075 129.573 63.3475C129.888 63.6875 130.128 64.1 130.293 64.585C130.463 65.065 130.548 65.6025 130.548 66.1975C130.548 66.7975 130.463 67.3375 130.293 67.8175C130.128 68.2975 129.888 68.7075 129.573 69.0475C129.258 69.3875 128.878 69.65 128.433 69.835C127.988 70.015 127.488 70.105 126.933 70.105C126.373 70.105 125.868 70.015 125.418 69.835C124.973 69.65 124.593 69.3875 124.278 69.0475C123.963 68.7075 123.72 68.2975 123.55 67.8175C123.385 67.3375 123.303 66.7975 123.303 66.1975C123.303 65.6025 123.385 65.065 123.55 64.585C123.72 64.1 123.963 63.6875 124.278 63.3475C124.593 63.0075 124.973 62.745 125.418 62.56C125.868 62.375 126.373 62.2825 126.933 62.2825ZM126.933 69.0625C127.683 69.0625 128.243 68.8125 128.613 68.3125C128.983 67.8075 129.168 67.105 129.168 66.205C129.168 65.3 128.983 64.595 128.613 64.09C128.243 63.585 127.683 63.3325 126.933 63.3325C126.553 63.3325 126.22 63.3975 125.935 63.5275C125.655 63.6575 125.42 63.845 125.23 64.09C125.045 64.335 124.905 64.6375 124.81 64.9975C124.72 65.3525 124.675 65.755 124.675 66.205C124.675 67.105 124.86 67.8075 125.23 68.3125C125.605 68.8125 126.173 69.0625 126.933 69.0625ZM136.392 70.12C135.792 70.12 135.329 69.9525 135.004 69.6175C134.684 69.2825 134.524 68.8 134.524 68.17V63.52H133.609C133.529 63.52 133.462 63.4975 133.407 63.4525C133.352 63.4025 133.324 63.3275 133.324 63.2275V62.695L134.569 62.5375L134.877 60.19C134.892 60.115 134.924 60.055 134.974 60.01C135.029 59.96 135.099 59.935 135.184 59.935H135.859V62.5525H138.057V63.52H135.859V68.08C135.859 68.4 135.937 68.6375 136.092 68.7925C136.247 68.9475 136.447 69.025 136.692 69.025C136.832 69.025 136.952 69.0075 137.052 68.9725C137.157 68.9325 137.247 68.89 137.322 68.845C137.397 68.8 137.459 68.76 137.509 68.725C137.564 68.685 137.612 68.665 137.652 68.665C137.722 68.665 137.784 68.7075 137.839 68.7925L138.229 69.43C137.999 69.645 137.722 69.815 137.397 69.94C137.072 70.06 136.737 70.12 136.392 70.12ZM145.81 63.655C145.75 63.765 145.658 63.82 145.533 63.82C145.458 63.82 145.373 63.7925 145.278 63.7375C145.183 63.6825 145.065 63.6225 144.925 63.5575C144.79 63.4875 144.628 63.425 144.438 63.37C144.248 63.31 144.023 63.28 143.763 63.28C143.538 63.28 143.335 63.31 143.155 63.37C142.975 63.425 142.82 63.5025 142.69 63.6025C142.565 63.7025 142.468 63.82 142.398 63.955C142.333 64.085 142.3 64.2275 142.3 64.3825C142.3 64.5775 142.355 64.74 142.465 64.87C142.58 65 142.73 65.1125 142.915 65.2075C143.1 65.3025 143.31 65.3875 143.545 65.4625C143.78 65.5325 144.02 65.61 144.265 65.695C144.515 65.775 144.758 65.865 144.993 65.965C145.228 66.065 145.438 66.19 145.623 66.34C145.808 66.49 145.955 66.675 146.065 66.895C146.18 67.11 146.238 67.37 146.238 67.675C146.238 68.025 146.175 68.35 146.05 68.65C145.925 68.945 145.74 69.2025 145.495 69.4225C145.25 69.6375 144.95 69.8075 144.595 69.9325C144.24 70.0575 143.83 70.12 143.365 70.12C142.835 70.12 142.355 70.035 141.925 69.865C141.495 69.69 141.13 69.4675 140.83 69.1975L141.145 68.6875C141.185 68.6225 141.233 68.5725 141.288 68.5375C141.343 68.5025 141.413 68.485 141.498 68.485C141.588 68.485 141.683 68.52 141.783 68.59C141.883 68.66 142.003 68.7375 142.143 68.8225C142.288 68.9075 142.463 68.985 142.668 69.055C142.873 69.125 143.128 69.16 143.433 69.16C143.693 69.16 143.92 69.1275 144.115 69.0625C144.31 68.9925 144.473 68.9 144.603 68.785C144.733 68.67 144.828 68.5375 144.888 68.3875C144.953 68.2375 144.985 68.0775 144.985 67.9075C144.985 67.6975 144.928 67.525 144.813 67.39C144.703 67.25 144.555 67.1325 144.37 67.0375C144.185 66.9375 143.973 66.8525 143.733 66.7825C143.498 66.7075 143.255 66.63 143.005 66.55C142.76 66.47 142.518 66.38 142.278 66.28C142.043 66.175 141.833 66.045 141.648 65.89C141.463 65.735 141.313 65.545 141.198 65.32C141.088 65.09 141.033 64.8125 141.033 64.4875C141.033 64.1975 141.093 63.92 141.213 63.655C141.333 63.385 141.508 63.15 141.738 62.95C141.968 62.745 142.25 62.5825 142.585 62.4625C142.92 62.3425 143.303 62.2825 143.733 62.2825C144.233 62.2825 144.68 62.3625 145.075 62.5225C145.475 62.6775 145.82 62.8925 146.11 63.1675L145.81 63.655Z" fill="#202020"/>
<path d="M0.312 49V44.998H7.212V4.702H0.312V0.699997H18.666C24.968 0.699997 29.867 2.31 33.363 5.53C36.905 8.704 38.676 13.672 38.676 20.434V29.335C38.676 36.097 36.905 41.065 33.363 44.239C29.867 47.413 24.968 49 18.666 49H0.312ZM11.628 44.998H18.666C23.726 44.998 27.59 43.779 30.258 41.341C32.926 38.903 34.26 34.97 34.26 29.542V20.227C34.26 14.753 32.926 10.82 30.258 8.428C27.59 5.99 23.726 4.771 18.666 4.771H11.628V44.998ZM60.0735 49.966C56.6235 49.966 53.6105 49.253 51.0345 47.827C48.5045 46.355 46.5265 44.308 45.1005 41.686C43.6745 39.064 42.9615 36.051 42.9615 32.647V31.819C42.9615 28.369 43.6745 25.356 45.1005 22.78C46.5265 20.158 48.4815 18.134 50.9655 16.708C53.4955 15.236 56.3705 14.5 59.5905 14.5C62.7185 14.5 65.4785 15.167 67.8705 16.501C70.3085 17.789 72.2175 19.675 73.5975 22.159C74.9776 24.597 75.6676 27.518 75.6676 30.922V33.13H47.1015C47.2395 37.316 48.5045 40.559 50.8965 42.859C53.3345 45.113 56.3935 46.24 60.0735 46.24C63.2015 46.24 65.6165 45.527 67.3185 44.101C69.0665 42.675 70.4005 40.927 71.3205 38.857L75.0466 40.513C74.3565 42.031 73.3905 43.526 72.1485 44.998C70.9525 46.424 69.3885 47.62 67.4565 48.586C65.5245 49.506 63.0635 49.966 60.0735 49.966ZM47.1705 29.542H71.4585C71.2745 25.908 70.1015 23.125 67.9395 21.193C65.7775 19.215 62.9945 18.226 59.5905 18.226C56.2325 18.226 53.4495 19.215 51.2415 21.193C49.0335 23.125 47.6765 25.908 47.1705 29.542ZM97.0338 49.966C93.7678 49.966 90.8468 49.276 88.2708 47.896C85.7408 46.47 83.7398 44.446 82.2678 41.824C80.7958 39.202 80.0598 36.12 80.0598 32.578V31.888C80.0598 28.3 80.7958 25.218 82.2678 22.642C83.7398 20.02 85.7408 18.019 88.2708 16.639C90.8468 15.213 93.7678 14.5 97.0338 14.5C100.254 14.5 102.968 15.121 105.176 16.363C107.43 17.559 109.178 19.146 110.42 21.124C111.708 23.056 112.513 25.103 112.835 27.265L108.764 28.093C108.534 26.299 107.959 24.666 107.039 23.194C106.119 21.676 104.831 20.48 103.175 19.606C101.519 18.686 99.4718 18.226 97.0338 18.226C94.5958 18.226 92.4108 18.801 90.4788 19.951C88.5468 21.055 87.0058 22.642 85.8558 24.712C84.7518 26.736 84.1998 29.151 84.1998 31.957V32.509C84.1998 35.315 84.7518 37.753 85.8558 39.823C87.0058 41.847 88.5468 43.434 90.4788 44.584C92.4108 45.688 94.5958 46.24 97.0338 46.24C100.714 46.24 103.52 45.297 105.452 43.411C107.384 41.479 108.58 39.133 109.04 36.373L113.111 37.201C112.697 39.363 111.823 41.433 110.489 43.411C109.201 45.343 107.43 46.93 105.176 48.172C102.968 49.368 100.254 49.966 97.0338 49.966ZM134.607 49.966C131.157 49.966 128.144 49.253 125.568 47.827C123.038 46.355 121.06 44.308 119.634 41.686C118.208 39.064 117.495 36.051 117.495 32.647V31.819C117.495 28.369 118.208 25.356 119.634 22.78C121.06 20.158 123.015 18.134 125.499 16.708C128.029 15.236 130.904 14.5 134.124 14.5C137.252 14.5 140.012 15.167 142.404 16.501C144.842 17.789 146.751 19.675 148.131 22.159C149.511 24.597 150.201 27.518 150.201 30.922V33.13H121.635C121.773 37.316 123.038 40.559 125.43 42.859C127.868 45.113 130.927 46.24 134.607 46.24C137.735 46.24 140.15 45.527 141.852 44.101C143.6 42.675 144.934 40.927 145.854 38.857L149.58 40.513C148.89 42.031 147.924 43.526 146.682 44.998C145.486 46.424 143.922 47.62 141.99 48.586C140.058 49.506 137.597 49.966 134.607 49.966ZM121.704 29.542H145.992C145.808 25.908 144.635 23.125 142.473 21.193C140.311 19.215 137.528 18.226 134.124 18.226C130.766 18.226 127.983 19.215 125.775 21.193C123.567 23.125 122.21 25.908 121.704 29.542ZM156.249 62.8V15.466H160.251V21.607H161.079C162.045 19.767 163.54 18.134 165.564 16.708C167.634 15.236 170.509 14.5 174.189 14.5C177.179 14.5 179.893 15.213 182.331 16.639C184.769 18.019 186.701 19.997 188.127 22.573C189.599 25.149 190.335 28.231 190.335 31.819V32.647C190.335 36.189 189.622 39.271 188.196 41.893C186.77 44.469 184.838 46.47 182.4 47.896C179.962 49.276 177.225 49.966 174.189 49.966C171.751 49.966 169.658 49.644 167.91 49C166.208 48.31 164.805 47.436 163.701 46.378C162.643 45.32 161.815 44.239 161.217 43.135H160.389V62.8H156.249ZM173.223 46.24C177.041 46.24 180.123 45.021 182.469 42.583C184.861 40.145 186.057 36.787 186.057 32.509V31.957C186.057 27.679 184.861 24.321 182.469 21.883C180.123 19.445 177.041 18.226 173.223 18.226C169.451 18.226 166.369 19.445 163.977 21.883C161.585 24.321 160.389 27.679 160.389 31.957V32.509C160.389 36.787 161.585 40.145 163.977 42.583C166.369 45.021 169.451 46.24 173.223 46.24ZM207.378 49C205.584 49 204.227 48.54 203.307 47.62C202.433 46.7 201.996 45.412 201.996 43.756V19.192H191.232V15.466H201.996V2.908H206.136V15.466H217.866V19.192H206.136V43.204C206.136 44.584 206.826 45.274 208.206 45.274H216.072V49H207.378ZM222.966 49V15.466H227.106V49H222.966ZM225.036 9.67C224.024 9.67 223.173 9.325 222.483 8.635C221.793 7.945 221.448 7.094 221.448 6.082C221.448 5.024 221.793 4.173 222.483 3.529C223.173 2.839 224.024 2.494 225.036 2.494C226.094 2.494 226.945 2.839 227.589 3.529C228.279 4.173 228.624 5.024 228.624 6.082C228.624 7.094 228.279 7.945 227.589 8.635C226.945 9.325 226.094 9.67 225.036 9.67Z" fill="#CB2027"/>
<path d="M240.488 49V21.952H231.794V14.776H240.488V8.428C240.488 6.082 241.178 4.219 242.558 2.839C243.984 1.413 245.824 0.699997 248.078 0.699997H257.048V7.876H251.114C249.826 7.876 249.182 8.566 249.182 9.946V14.776H258.152V21.952H249.182V49H240.488ZM276.571 49.966C273.167 49.966 270.154 49.253 267.532 47.827C264.956 46.355 262.932 44.308 261.46 41.686C260.034 39.018 259.321 35.89 259.321 32.302V31.474C259.321 27.886 260.034 24.781 261.46 22.159C262.886 19.491 264.887 17.444 267.463 16.018C270.039 14.546 273.029 13.81 276.433 13.81C279.791 13.81 282.712 14.569 285.196 16.087C287.68 17.559 289.612 19.629 290.992 22.297C292.372 24.919 293.062 27.978 293.062 31.474V34.441H268.153C268.245 36.787 269.119 38.696 270.775 40.168C272.431 41.64 274.455 42.376 276.847 42.376C279.285 42.376 281.079 41.847 282.229 40.789C283.379 39.731 284.253 38.558 284.851 37.27L291.958 40.996C291.314 42.192 290.371 43.503 289.129 44.929C287.933 46.309 286.323 47.505 284.299 48.517C282.275 49.483 279.699 49.966 276.571 49.966ZM268.222 27.955H284.23C284.046 25.977 283.241 24.39 281.815 23.194C280.435 21.998 278.618 21.4 276.364 21.4C274.018 21.4 272.155 21.998 270.775 23.194C269.395 24.39 268.544 25.977 268.222 27.955ZM313.634 49.966C310.23 49.966 307.217 49.253 304.595 47.827C302.019 46.355 299.995 44.308 298.523 41.686C297.097 39.018 296.384 35.89 296.384 32.302V31.474C296.384 27.886 297.097 24.781 298.523 22.159C299.949 19.491 301.95 17.444 304.526 16.018C307.102 14.546 310.092 13.81 313.496 13.81C316.854 13.81 319.775 14.569 322.259 16.087C324.743 17.559 326.675 19.629 328.055 22.297C329.435 24.919 330.125 27.978 330.125 31.474V34.441H305.216C305.308 36.787 306.182 38.696 307.838 40.168C309.494 41.64 311.518 42.376 313.91 42.376C316.348 42.376 318.142 41.847 319.292 40.789C320.442 39.731 321.316 38.558 321.914 37.27L329.021 40.996C328.377 42.192 327.434 43.503 326.192 44.929C324.996 46.309 323.386 47.505 321.362 48.517C319.338 49.483 316.762 49.966 313.634 49.966ZM305.285 27.955H321.293C321.109 25.977 320.304 24.39 318.878 23.194C317.498 21.998 315.681 21.4 313.427 21.4C311.081 21.4 309.218 21.998 307.838 23.194C306.458 24.39 305.607 25.977 305.285 27.955ZM348.904 49.966C346.19 49.966 343.637 49.299 341.245 47.965C338.899 46.585 337.013 44.584 335.587 41.962C334.161 39.34 333.448 36.166 333.448 32.44V31.336C333.448 27.61 334.161 24.436 335.587 21.814C337.013 19.192 338.899 17.214 341.245 15.88C343.591 14.5 346.144 13.81 348.904 13.81C350.974 13.81 352.699 14.063 354.079 14.569C355.505 15.029 356.655 15.627 357.529 16.363C358.403 17.099 359.07 17.881 359.53 18.709H360.772V0.699997H369.466V49H360.91V44.86H359.668C358.886 46.148 357.667 47.321 356.011 48.379C354.401 49.437 352.032 49.966 348.904 49.966ZM351.526 42.376C354.194 42.376 356.425 41.525 358.219 39.823C360.013 38.075 360.91 35.545 360.91 32.233V31.543C360.91 28.231 360.013 25.724 358.219 24.022C356.471 22.274 354.24 21.4 351.526 21.4C348.858 21.4 346.627 22.274 344.833 24.022C343.039 25.724 342.142 28.231 342.142 31.543V32.233C342.142 35.545 343.039 38.075 344.833 39.823C346.627 41.525 348.858 42.376 351.526 42.376Z" fill="#363636"/>
</svg>
